<?xml version="1.0" encoding="utf-8"?>
<!-- Generator: Adobe Illustrator 16.0.0, SVG Export Plug-In . SVG Version: 6.00 Build 0)  -->
<!DOCTYPE svg PUBLIC "-//W3C//DTD SVG 1.1//EN" "http://www.w3.org/Graphics/SVG/1.1/DTD/svg11.dtd">
<svg version="1.1" xmlns="http://www.w3.org/2000/svg" xmlns:xlink="http://www.w3.org/1999/xlink" x="0px" y="0px"
	 width="277.774px" height="264.365px" viewBox="0 0 277.774 264.365" enable-background="new 0 0 277.774 264.365"
	 xml:space="preserve">
<g id="Layer_2" display="none">
</g>
<g id="Layer_1" display="none">
	<path display="inline" d="M226.646,197.166c0,0,47.914-14.134,47.914-80.577S208.516,3.836,208.516,3.836
		S140.06,50.145,140.06,116.588s49.664,80.577,49.664,80.577"/>
	<path display="inline" d="M177.27,204.943c0,0,1.364-49.937-61.827-70.469C52.251,113.942-12.2,162.444-12.2,162.444
		s22.888,79.416,86.079,99.947c63.191,20.532,91.98-22.333,91.98-22.333"/>
	<path display="inline" d="M169.409,254.306c0,0-47.072-16.729-86.125,37.025C44.229,345.085,70.44,421.37,70.44,421.37
		s82.602,2.773,121.655-50.981c39.055-53.753,7.184-94.38,7.184-94.38"/>
	<path display="inline" d="M213.926,277.037c0,0-30.456,39.599,8.599,93.352c39.055,53.754,119.705,52.398,119.705,52.398
		s28.163-77.701-10.893-131.455c-39.054-53.754-87.541-35.997-87.541-35.997"/>
	<path display="inline" d="M249.301,241.722c0,0,28.249,41.202,91.439,20.669c63.191-20.532,86.824-97.654,86.824-97.654
		s-65.195-50.795-128.387-30.262c-63.191,20.531-61.287,72.133-61.287,72.133"/>
	<circle display="inline" fill="#FFFFFF" cx="207.31" cy="235.035" r="52.75"/>
</g>
<g id="Layer_3" display="none">
	<path display="inline" fill="#FFFFFF" d="M218.073,3.987c0,0-9.012,71.893-9.012,150.544h14.917l-16.667,23.753
		c0,0-16.667-23.753-16.667-23.753h14.917c0-78.651-9.012-150.544-9.012-150.544"/>
	<path display="inline" fill="#FFFFFF" d="M147.701,101.196c-4.694,0-8.5-44.594-8.5-98.371c0-1.059,0.002-2.113,0.005-3.164h-1.291
		c0.003,1.023,0.005,2.048,0.005,3.079c0,53.776-3.732,98.456-8.427,98.456l9.067,10.589"/>
	<g display="inline">
		<g>
			<path fill="#FFFFFF" d="M112.613,113.408l-10.74-14.713c0,0-7.109-9.361-22.711-13.448s20.473-31.75,19.829-14.356
				c-0.597,16.144,6.042,25.35,6.042,25.35l10.811,14.81L112.613,113.408z"/>
			<g>
				<path fill="#FFFFFF" d="M106.15,100.736c1.253-8.023,8.812-16.93,15.042-21.756c-3.902,12.595-5.321,26.298-2.201,39.346
					c-11.299-7.078-24.967-9.209-38.146-9.895C88.058,104.003,97.543,99.63,106.15,100.736z"/>
			</g>
		</g>
		<g>
			<path fill="#FFFFFF" d="M99.685,160.867l-17.312,5.668c0,0-11.1,3.869-19.808,17.444c-8.708,13.575-23.87-29.282-7.526-23.295
				c15.169,5.557,25.976,2.087,25.976,2.087l17.425-5.705L99.685,160.867z"/>
			<g>
				<path fill="#FFFFFF" d="M85.636,163.098c-7.243-3.671-13.378-13.612-16.043-21.028c10.772,7.604,23.367,13.187,36.74,14.251
					c-10.224,8.559-16.474,20.899-21.199,33.222C83.153,181.314,81.924,170.942,85.636,163.098z"/>
			</g>
		</g>
		<g>
			<path fill="#FFFFFF" d="M140.826,187.828l0.041,18.216c0,0,0.249,11.752,10.469,24.229c10.219,12.477-35.226,13.653-24.48-0.041
				c9.972-12.709,10.012-24.06,10.012-24.06l-0.041-18.335L140.826,187.828z"/>
			<g>
				<path fill="#FFFFFF" d="M138.816,201.879c-5.729,5.754-17.08,8.517-24.957,8.76c10.561-7.896,19.762-18.148,24.907-30.538
					c4.981,12.368,14.786,22.126,25.045,30.427C155.374,209.869,145.129,207.833,138.816,201.879z"/>
			</g>
		</g>
		<g>
			<path fill="#FFFFFF" d="M179.181,157.032l17.337,5.59c0,0,11.254,3.395,26.278-2.47c15.023-5.863,2.1,37.721-7.604,23.27
				c-9.006-13.412-19.788-16.957-19.788-16.957l-17.451-5.627L179.181,157.032z"/>
			<g>
				<path fill="#FFFFFF" d="M191.858,163.485c3.702,7.227,2.822,18.876,0.619,26.442c-4.246-12.484-11.153-24.403-21.347-33.125
					c13.302-0.915,25.612-7.225,36.677-14.417C204.574,150.207,199.471,159.32,191.858,163.485z"/>
			</g>
		</g>
		<g>
			<path fill="#FFFFFF" d="M161.744,111.038l10.674-14.761c0,0,6.707-9.654,5.771-25.755c-0.934-16.1,36.523,9.66,19.781,14.423
				c-15.538,4.42-22.241,13.58-22.241,13.58l-10.744,14.858L161.744,111.038z"/>
			<g>
				<path fill="#FFFFFF" d="M171.799,100.975c8.018-1.287,18.824,3.149,25.34,7.583c-13.185,0.18-26.656,3.066-38.101,10.065
					c3.241-12.934,1.043-26.591-2.377-39.337C163.101,84.779,170.191,92.448,171.799,100.975z"/>
			</g>
		</g>
	</g>
</g>
<g id="Layer_4">
</g>
<g id="Layer_5">
	<g>
		<g>
			<g>
				<path fill="#654FF0" d="M69.593,142.069c10.717,7.564,23.238,13.125,36.534,14.231c-1.017-3.241-1.567-6.689-1.567-10.266
					c0-11.455,5.629-21.589,14.265-27.807c-11.267-6.997-24.865-9.115-37.98-9.797c6.41-3.934,14.612-7.815,22.398-7.858
					l-1.371-1.878c0,0-6.961-9.138-22.19-13.296c-28.498-7.869-57.859-1.223-79.837,15.747
					c7.694,26.266,27.085,48.637,54.148,59.218c0.335,0.086,0.68,0.188,1.045,0.321c15.169,5.557,25.976,2.087,25.976,2.087
					l2.641-0.865C77.29,157.59,72.01,148.798,69.593,142.069z"/>
			</g>
			<g>
				<path fill="#654FF0" d="M105.033,96.24l1.639,2.245c2.138-7.389,8.868-15.126,14.52-19.505
					c-3.884,12.535-5.304,26.167-2.241,39.159c5.603-3.996,12.454-6.354,19.86-6.354c7.587,0,14.595,2.471,20.271,6.646
					c3.171-12.877,0.984-26.462-2.42-39.145c5.722,4.881,11.948,11.481,14.395,18.874l1.362-1.884c0,0,6.551-9.458,5.787-25.249
					C176.871,41.508,161.481,15.651,138.56,0c-22.603,15.434-37.887,40.79-39.586,69.797c0.021,0.345,0.032,0.704,0.017,1.094
					C98.394,87.035,105.033,96.24,105.033,96.24z"/>
			</g>
			<g>
				<path fill="#654FF0" d="M215.85,184.298c-0.22-0.267-0.44-0.552-0.658-0.876c-9.006-13.412-19.788-16.957-19.788-16.957
					l-2.645-0.853c2.613,7.234,1.716,17.449-0.283,24.314c-4.225-12.422-11.088-24.283-21.199-32.993
					c-4.55,13.559-17.344,23.333-32.433,23.349c5.004,12.28,14.758,21.984,24.966,30.244c-7.583-0.592-16.614-2.307-22.95-6.966
					l0.005,2.482c0,0,0.235,10.967,9.463,22.959c18.425,23.674,46.426,35.85,74.519,35.029
					C234.063,238.261,231.525,208.764,215.85,184.298z"/>
			</g>
			<g>
				<path fill="#654FF0" d="M113.859,210.639c10.508-7.857,19.668-18.049,24.828-30.357c-15.228-0.054-28.109-10.044-32.507-23.826
					c-10.131,8.554-16.345,20.828-21.045,33.087c-1.761-7.312-2.918-16.312-0.552-23.73l-2.209,0.723
					c0,0-10.358,3.612-18.912,16.095c-16.821,24.839-19.748,55.231-10.286,81.695c27.357,0.799,54.626-10.729,73.051-33.198
					c0.186-0.292,0.389-0.589,0.629-0.896c9.972-12.709,10.012-24.06,10.012-24.06l-0.006-2.616
					C130.77,208.168,120.924,210.421,113.859,210.639z"/>
			</g>
			<g>
				<path fill="#654FF0" d="M199.009,84.588c-0.323,0.128-0.662,0.249-1.039,0.356c-15.538,4.42-22.241,13.58-22.241,13.58
					l-1.628,2.251c7.688-0.25,17.125,3.76,23.037,7.783c-13.12,0.179-26.521,3.042-37.929,9.965
					c8.403,6.241,13.85,16.239,13.85,27.512c0,3.756-0.613,7.367-1.73,10.749c13.226-0.964,25.469-7.243,36.478-14.398
					c-2.874,6.95-7.227,14.911-13.502,19.522l2.212,0.713c0,0,10.507,3.167,24.77-1.909c28.204-10.21,48.432-33.075,56.332-60.043
					C255.958,83.943,227.122,77.242,199.009,84.588z"/>
			</g>
		</g>
	</g>
</g>
<g id="Layer_6" display="none">
	
		<circle display="inline" fill="none" stroke="#FF0000" stroke-width="3" stroke-miterlimit="10" cx="138.81" cy="146.035" r="148"/>
	<circle display="inline" fill="none" stroke="#FF9700" stroke-width="3" stroke-miterlimit="10" cx="190.31" cy="74.203" r="91"/>
	<circle display="inline" fill="none" stroke="#FF9700" stroke-width="3" stroke-miterlimit="10" cx="86.31" cy="74.203" r="91"/>
	<circle display="inline" fill="none" stroke="#FF9700" stroke-width="3" stroke-miterlimit="10" cx="221.31" cy="172.203" r="91"/>
	<circle display="inline" fill="none" stroke="#FF9700" stroke-width="3" stroke-miterlimit="10" cx="139.31" cy="232.203" r="91"/>
	<circle display="inline" fill="none" stroke="#FF9700" stroke-width="3" stroke-miterlimit="10" cx="56.31" cy="173.203" r="91"/>
	
		<circle display="inline" fill="none" stroke="#001FFF" stroke-width="3" stroke-miterlimit="10" cx="138.81" cy="146.035" r="34.25"/>
</g>
</svg>
